<svg width="33" height="38" viewBox="0 0 33 38" fill="none" xmlns="http://www.w3.org/2000/svg">
<path d="M0 9.98184V29.3557L15.0934 37.9996L32.1357 27.9207V8.54688" fill="#FF9271"/>
<path d="M15.0938 18.6262V38L32.136 27.9207V8.54688L15.0938 18.6262Z" fill="#DF5C34"/>
<path d="M0 9.98147L17.5123 0L32.1361 8.54758L15.0938 18.6265L0 9.98147Z" fill="#F47B56"/>
<path d="M15.4944 4.44661C17.27 4.32673 19.0429 4.71719 20.6038 5.57193C21.4979 6.09772 21.9863 6.64653 22.0553 7.21872C22.1244 7.79055 21.8295 8.28865 21.1339 8.70871C20.804 8.91256 20.4405 9.05624 20.0604 9.13309C19.7479 9.20681 19.4274 9.23918 19.1066 9.22983L18.7563 9.20214C18.7891 9.28018 18.8106 9.36254 18.8211 9.44669C18.8101 9.6458 18.7464 9.83841 18.6366 10.0049C18.4542 10.3143 18.1938 10.5703 17.8813 10.7475C17.1532 11.1802 16.3186 11.4006 15.4717 11.3841C14.5955 11.4076 13.7297 11.189 12.9697 10.7522C12.2508 10.3278 11.8825 9.82935 11.8548 9.25752C11.8575 8.95465 11.9454 8.65864 12.1083 8.40331C12.2712 8.14797 12.5027 7.94361 12.7762 7.81357C13.0387 7.64988 13.3245 7.52704 13.6239 7.44925C13.8626 7.38032 14.1084 7.33858 14.3565 7.32481H14.61L14.149 7.04789L15.4437 6.24086L18.4431 8.00741C18.6724 8.1309 18.9289 8.19554 19.1893 8.19554C19.4498 8.19554 19.7062 8.1309 19.9356 8.00741C20.5718 7.61073 20.3445 7.08961 19.2541 6.44369C18.0952 5.80559 16.7778 5.51268 15.4577 5.59962C14.0585 5.61678 12.6898 6.01034 11.4952 6.73896C10.408 7.41868 9.8689 8.22895 9.87825 9.17013C9.87825 10.0922 10.454 10.9137 11.5736 11.5732C12.7955 12.2567 14.1833 12.5872 15.5822 12.5281C16.9748 12.5508 18.3464 12.1867 19.5443 11.4761C19.959 11.2304 20.3309 10.9189 20.6455 10.5537C20.8559 10.3302 21.0132 10.0622 21.1059 9.76965L21.1706 9.47906L22.88 9.57581C22.8829 9.62795 22.8829 9.6801 22.88 9.73261C22.8487 9.87381 22.8071 10.0125 22.7555 10.1476C22.6813 10.3645 22.5824 10.572 22.4606 10.7662C22.2851 11.0276 22.0813 11.2688 21.8528 11.4855C21.5515 11.7762 21.2193 12.0331 20.862 12.2515C19.8334 12.869 18.6941 13.2795 17.508 13.4599C16.2156 13.6857 14.8958 13.7089 13.5962 13.529C12.4148 13.3897 11.273 13.0165 10.2375 12.431C9.4014 11.9883 8.7319 11.2857 8.33 10.4292C8.16575 10.0556 8.08093 9.65185 8.08093 9.24368C8.08093 8.83551 8.16575 8.43179 8.33 8.05812C8.72811 7.18597 9.39073 6.46132 10.2239 5.98695C11.8113 5.01127 13.6314 4.47922 15.4944 4.44625V4.44661ZM17.1714 9.21616C17.1103 8.89573 16.8945 8.62635 16.5956 8.49652C16.2327 8.28265 15.8193 8.16955 15.398 8.16889C15.0064 8.15404 14.6189 8.25338 14.2828 8.45481C14.1473 8.52092 14.0327 8.62304 13.9514 8.74997C13.8702 8.87691 13.8254 9.02376 13.8221 9.17445C13.8641 9.49453 14.0702 9.76929 14.3658 9.89876C14.737 10.1109 15.159 10.2178 15.5865 10.2081C15.9974 10.2183 16.403 10.1128 16.7567 9.90344C16.8879 9.84336 16.9988 9.74637 17.0757 9.62432C17.1527 9.50227 17.1924 9.36044 17.1901 9.21616" fill="#3E2928"/>
</svg>
