<svg width="50" height="10" viewBox="0 0 50 10" fill="none" xmlns="http://www.w3.org/2000/svg">
<path d="M0 0.138889H1.80945L3.21244 5.95833H3.23866V0.138889H4.52364V9.86111H3.04198L1.3112 2.76389H1.28497V9.86111H0V0.138889Z" fill="#6C63FF"/>
<path d="M7.68045 10C6.9724 10 6.43044 9.78704 6.05456 9.36111C5.67869 8.93519 5.49075 8.33333 5.49075 7.55556V2.44444C5.49075 1.66667 5.67869 1.06481 6.05456 0.638889C6.43044 0.212963 6.9724 0 7.68045 0C8.3885 0 8.93046 0.212963 9.30634 0.638889C9.68221 1.06481 9.87015 1.66667 9.87015 2.44444V7.55556C9.87015 8.33333 9.68221 8.93519 9.30634 9.36111C8.93046 9.78704 8.3885 10 7.68045 10ZM7.68045 8.61111C8.1787 8.61111 8.42783 8.29167 8.42783 7.65278V2.34722C8.42783 1.70833 8.1787 1.38889 7.68045 1.38889C7.18219 1.38889 6.93307 1.70833 6.93307 2.34722V7.65278C6.93307 8.29167 7.18219 8.61111 7.68045 8.61111Z" fill="#6C63FF"/>
<path d="M12.8648 2.44444H11.3569V1.36111C11.7678 1.36111 12.0956 1.32407 12.3403 1.25C12.5938 1.17593 12.7949 1.05556 12.9435 0.888889C13.0921 0.712963 13.2232 0.462963 13.3368 0.138889H14.3071V9.86111H12.8648V2.44444Z" fill="#6C63FF"/>
<path d="M17.9705 10C17.2712 10 16.7423 9.79167 16.3839 9.375C16.0255 8.94907 15.8463 8.34259 15.8463 7.55556V7H17.21V7.66667C17.21 8.2963 17.4591 8.61111 17.9574 8.61111C18.2021 8.61111 18.3857 8.53704 18.5081 8.38889C18.6392 8.23148 18.7048 7.98148 18.7048 7.63889C18.7048 7.23148 18.6173 6.875 18.4425 6.56944C18.2677 6.25463 17.9443 5.87963 17.4722 5.44445C16.8778 4.88889 16.4626 4.38889 16.2266 3.94444C15.9906 3.49074 15.8726 2.98148 15.8726 2.41667C15.8726 1.64815 16.0561 1.05556 16.4233 0.638889C16.7904 0.212963 17.3236 0 18.0229 0C18.7135 0 19.2336 0.212963 19.5833 0.638889C19.9417 1.05556 20.1209 1.65741 20.1209 2.44444V2.84722H18.7572V2.34722C18.7572 2.01389 18.696 1.77315 18.5736 1.625C18.4513 1.46759 18.2721 1.38889 18.0361 1.38889C17.5553 1.38889 17.3149 1.69907 17.3149 2.31944C17.3149 2.6713 17.4023 3 17.5771 3.30556C17.7607 3.61111 18.0885 3.98148 18.5605 4.41667C19.1637 4.97222 19.5789 5.47685 19.8062 5.93056C20.0334 6.38426 20.1471 6.91667 20.1471 7.52778C20.1471 8.32407 19.9591 8.93519 19.5833 9.36111C19.2161 9.78704 18.6785 10 17.9705 10Z" fill="#6C63FF"/>
<path d="M22.1017 1.52778H20.5938V0.138889H25.0519V1.52778H23.544V9.86111H22.1017V1.52778Z" fill="#6C63FF"/>
<path d="M26.2629 0.138889H28.2166L29.7114 9.86111H28.269L28.0068 7.93056V7.95833H26.3678L26.1056 9.86111H24.7681L26.2629 0.138889ZM27.8363 6.63889L27.1939 1.83333H27.1676L26.5383 6.63889H27.8363Z" fill="#6C63FF"/>
<path d="M30.4111 0.138889H32.5484C33.2914 0.138889 33.8333 0.324074 34.1742 0.694445C34.5152 1.05556 34.6856 1.61574 34.6856 2.375V2.97222C34.6856 3.98148 34.3709 4.62037 33.7416 4.88889V4.91667C34.0912 5.02778 34.336 5.25463 34.4758 5.59722C34.6244 5.93982 34.6987 6.39815 34.6987 6.97222V8.68056C34.6987 8.95833 34.7075 9.18519 34.7249 9.36111C34.7424 9.52778 34.7861 9.69445 34.8561 9.86111H33.3875C33.3351 9.7037 33.3001 9.55556 33.2826 9.41667C33.2651 9.27778 33.2564 9.02778 33.2564 8.66667V6.88889C33.2564 6.44445 33.1865 6.13426 33.0466 5.95833C32.9155 5.78241 32.6838 5.69444 32.3517 5.69444H31.8534V9.86111H30.4111V0.138889ZM32.3779 4.30556C32.6664 4.30556 32.8805 4.22685 33.0204 4.06944C33.169 3.91204 33.2433 3.64815 33.2433 3.27778V2.52778C33.2433 2.17593 33.1821 1.9213 33.0597 1.76389C32.9461 1.60648 32.7625 1.52778 32.509 1.52778H31.8534V4.30556H32.3779Z" fill="#6C63FF"/>
<path d="M36.8015 1.52778H35.2936V0.138889H39.7517V1.52778H38.2438V9.86111H36.8015V1.52778Z" fill="#6C63FF"/>
<path d="M42.5479 10C41.8486 10 41.3154 9.79167 40.9482 9.375C40.5811 8.94907 40.3975 8.34259 40.3975 7.55556V0.138889H41.8398V7.66667C41.8398 8 41.901 8.24074 42.0234 8.38889C42.1545 8.53704 42.3381 8.61111 42.5741 8.61111C42.8101 8.61111 42.9893 8.53704 43.1117 8.38889C43.2428 8.24074 43.3084 8 43.3084 7.66667V0.138889H44.6982V7.55556C44.6982 8.34259 44.5147 8.94907 44.1475 9.375C43.7804 9.79167 43.2472 10 42.5479 10Z" fill="#6C63FF"/>
<path d="M45.7255 0.138889H47.8496C48.5664 0.138889 49.104 0.342593 49.4624 0.75C49.8208 1.15741 50 1.75463 50 2.54167V3.5C50 4.28704 49.8208 4.88426 49.4624 5.29167C49.104 5.69907 48.5664 5.90278 47.8496 5.90278H47.1678V9.86111H45.7255V0.138889ZM47.8496 4.51389C48.0857 4.51389 48.2605 4.44444 48.3741 4.30556C48.4965 4.16667 48.5577 3.93056 48.5577 3.59722V2.44444C48.5577 2.11111 48.4965 1.875 48.3741 1.73611C48.2605 1.59722 48.0857 1.52778 47.8496 1.52778H47.1678V4.51389H47.8496Z" fill="#6C63FF"/>
</svg>
